<?xml version="1.0" encoding="UTF-8" standalone="no"?>
<!-- Created with Inkscape (http://www.inkscape.org/) -->

<svg
   width="64pt"
   height="64pt"
   viewBox="0 0 22.577778 22.577778"
   version="1.1"
   id="svg831"
   inkscape:version="1.1.1 (3bf5ae0d25, 2021-09-20)"
   sodipodi:docname="#1.svg"
   inkscape:export-filename="C:\Users\User\Desktop\Done Januari II\E\14 - Tea Pot.png"
   inkscape:export-xdpi="576"
   inkscape:export-ydpi="576"
   xmlns:inkscape="http://www.inkscape.org/namespaces/inkscape"
   xmlns:sodipodi="http://sodipodi.sourceforge.net/DTD/sodipodi-0.dtd"
   xmlns="http://www.w3.org/2000/svg"
   xmlns:svg="http://www.w3.org/2000/svg"
   xmlns:rdf="http://www.w3.org/1999/02/22-rdf-syntax-ns#"
   xmlns:cc="http://creativecommons.org/ns#"
   xmlns:dc="http://purl.org/dc/elements/1.1/">
  <defs
     id="defs825">
    <pattern
       id="EMFhbasepattern"
       patternUnits="userSpaceOnUse"
       width="6"
       height="6"
       x="0"
       y="0" />
    <pattern
       id="EMFhbasepattern-9"
       patternUnits="userSpaceOnUse"
       width="6"
       height="6"
       x="0"
       y="0" />
    <pattern
       id="EMFhbasepattern-0"
       patternUnits="userSpaceOnUse"
       width="6"
       height="6"
       x="0"
       y="0" />
    <pattern
       id="EMFhbasepattern-7"
       patternUnits="userSpaceOnUse"
       width="6"
       height="6"
       x="0"
       y="0" />
    <pattern
       id="EMFhbasepattern-2"
       patternUnits="userSpaceOnUse"
       width="6"
       height="6"
       x="0"
       y="0" />
    <pattern
       id="EMFhbasepattern-98"
       patternUnits="userSpaceOnUse"
       width="6"
       height="6"
       x="0"
       y="0" />
    <pattern
       id="EMFhbasepattern-6"
       patternUnits="userSpaceOnUse"
       width="6"
       height="6"
       x="0"
       y="0" />
    <pattern
       id="EMFhbasepattern-01"
       patternUnits="userSpaceOnUse"
       width="6"
       height="6"
       x="0"
       y="0" />
    <pattern
       id="EMFhbasepattern-07"
       patternUnits="userSpaceOnUse"
       width="6"
       height="6"
       x="0"
       y="0" />
    <pattern
       id="EMFhbasepattern-8"
       patternUnits="userSpaceOnUse"
       width="6"
       height="6"
       x="0"
       y="0" />
    <pattern
       id="EMFhbasepattern-4"
       patternUnits="userSpaceOnUse"
       width="6"
       height="6"
       x="0"
       y="0" />
    <pattern
       id="EMFhbasepattern-40"
       patternUnits="userSpaceOnUse"
       width="6"
       height="6"
       x="0"
       y="0" />
    <pattern
       id="EMFhbasepattern-08"
       patternUnits="userSpaceOnUse"
       width="6"
       height="6"
       x="0"
       y="0" />
    <pattern
       id="EMFhbasepattern-04"
       patternUnits="userSpaceOnUse"
       width="6"
       height="6"
       x="0"
       y="0" />
    <pattern
       id="EMFhbasepattern-014"
       patternUnits="userSpaceOnUse"
       width="6"
       height="6"
       x="0"
       y="0" />
    <pattern
       id="EMFhbasepattern-27"
       patternUnits="userSpaceOnUse"
       width="6"
       height="6"
       x="0"
       y="0" />
    <pattern
       id="EMFhbasepattern-09"
       patternUnits="userSpaceOnUse"
       width="6"
       height="6"
       x="0"
       y="0" />
    <pattern
       id="EMFhbasepattern-5"
       patternUnits="userSpaceOnUse"
       width="6"
       height="6"
       x="0"
       y="0" />
    <pattern
       id="EMFhbasepattern-018"
       patternUnits="userSpaceOnUse"
       width="6"
       height="6"
       x="0"
       y="0" />
  </defs>
  <sodipodi:namedview
     id="base"
     pagecolor="#ffffff"
     bordercolor="#666666"
     borderopacity="1.0"
     inkscape:pageopacity="0.0"
     inkscape:pageshadow="2"
     inkscape:zoom="3.2460938"
     inkscape:cx="42.666667"
     inkscape:cy="42.666667"
     inkscape:document-units="pt"
     inkscape:current-layer="layer1"
     showgrid="false"
     units="pt"
     inkscape:window-width="1920"
     inkscape:window-height="1001"
     inkscape:window-x="-9"
     inkscape:window-y="41"
     inkscape:window-maximized="1"
     inkscape:pagecheckerboard="true"
     inkscape:showpageshadow="false"
     inkscape:object-paths="true"
     inkscape:snap-intersection-paths="true"
     inkscape:snap-smooth-nodes="true"
     inkscape:snap-midpoints="true"
     showguides="true"
     inkscape:snap-bbox="true"
     inkscape:bbox-nodes="true"
     inkscape:snap-nodes="false"
     inkscape:snap-global="true">
    <inkscape:grid
       type="xygrid"
       id="grid1378" />
    <sodipodi:guide
       position="0.97013831,21.607643"
       orientation="78.000048,0"
       id="guide1380"
       inkscape:locked="false" />
    <sodipodi:guide
       position="0.97013831,0.97013129"
       orientation="0,78.000005"
       id="guide1382"
       inkscape:locked="false" />
    <sodipodi:guide
       position="21.607639,0.97013129"
       orientation="-78.000048,0"
       id="guide1384"
       inkscape:locked="false" />
    <sodipodi:guide
       position="21.607639,21.607643"
       orientation="0,-78.000005"
       id="guide1386"
       inkscape:locked="false" />
  </sodipodi:namedview>
  <metadata
     id="metadata828">
    <rdf:RDF>
      <cc:Work
         rdf:about="">
        <dc:format>image/svg+xml</dc:format>
        <dc:type
           rdf:resource="http://purl.org/dc/dcmitype/StillImage" />
      </cc:Work>
    </rdf:RDF>
  </metadata>
  <g
     inkscape:label="Icon"
     inkscape:groupmode="layer"
     id="layer1"
     transform="translate(0,-274.42223)">
    <path
       id="path2658"
       style="color:#000000;display:inline;fill:#000000;stroke-width:0.999999;stroke-linecap:round;stroke-linejoin:round;-inkscape-stroke:none"
       d="m 16.509894,275.39266 -2.531613,2.52881 c -0.420214,0.52115 -0.401313,0.93712 -0.401313,1.56399 0,0.55319 -0.219178,1.08333 -0.610354,1.47451 l -1.281538,1.28154 0.50688,0.50478 1.279441,-1.27874 c 0.391175,-0.39118 0.924112,-0.61313 1.477302,-0.61315 0.562169,0.0315 1.196266,-0.0479 1.561195,-0.40201 l 2.531616,-2.53092 -0.506182,-0.50619 -2.532315,2.53302 c -0.139626,0.13882 -0.365158,0.13882 -0.504786,0 -0.14069,-0.13995 -0.14069,-0.36764 0,-0.50758 l 2.530914,-2.53092 -0.506879,-0.50549 c -0.843886,0.8439 -1.68777,1.68779 -2.531617,2.53161 -0.139627,0.13884 -0.365155,0.13884 -0.504782,0 -0.140691,-0.13993 -0.140691,-0.36763 0,-0.50758 0.843573,-0.84355 1.686482,-1.68729 2.529516,-2.5309 z m -5.218438,0.59147 c -1.3889999,-0.003 -2.704377,0.36083 -3.8592968,0.99908 1.0959381,0.71067 1.98919,1.47607 2.7909968,2.28062 0.872468,-0.18877 1.833719,-0.10755 2.637884,0.16779 -0.0402,-0.74158 0.08605,-1.49063 0.610357,-2.01493 l 0.824995,-0.82499 c -0.938072,-0.38742 -1.953139,-0.60589 -3.004936,-0.60757 z m -6.2049399,0.92496 c -0.2234267,0.003 -0.3718099,0.13246 -0.5439367,0.21674 L 15.968055,288.5541 c 0.267177,0.26722 0.444651,0.19013 0.571203,0.0636 0.126567,-0.1265 0.203563,-0.30333 -0.06362,-0.5705 l -5.718331,-5.71554 c -0.627554,-0.71034 -0.715928,-1.10042 -0.715928,-1.966 -0.04007,-0.36601 -0.3249486,-0.59371 -0.5495314,-0.8194 -0.9913769,-0.99139 -2.108213,-1.85586 -3.0888331,-2.3016 -0.4903101,-0.22288 -0.9437355,-0.33829 -1.3164975,-0.3356 z m 0.1055748,1.88072 c -1.280311,1.45253 -2.083238,3.35197 -2.1344983,5.4177 -0.1122827,4.52447 3.7128999,8.14134 8.2254724,8.24225 4.539793,0.10147 8.220133,-3.85304 8.239458,-8.23177 0.007,-1.59789 -0.494988,-3.12205 -1.348656,-4.41581 l -1.156391,1.15779 c -0.387697,0.38769 -0.914701,0.60579 -1.462619,0.60966 0.500169,0.77935 0.79686,1.68869 0.79633,2.64556 -3.57e-4,0.76246 -0.188272,1.50436 -0.518765,2.17436 l 1.150796,1.1501 c 0.49218,0.49217 0.440503,1.20319 0.06083,1.58286 -0.379678,0.37964 -1.087905,0.42856 -1.580072,-0.0636 l -0.964126,-0.96415 c -0.885656,0.75362 -2.013696,1.21347 -3.218878,1.18365 -1.233922,-0.0306 -2.4020399,-0.52132 -3.305569,-1.30321 l -1.0836814,1.08369 c -0.4921715,0.49221 -1.2031913,0.44329 -1.582869,0.0636 -0.379685,-0.37968 -0.4285507,-1.0907 0.06362,-1.58287 l 1.2906275,-1.29063 c -0.756202,-1.7741 -0.6620718,-3.45813 0.7564776,-5.23312 z m 5.4792221,1.12284 c 0.119434,0.349 0.08599,0.66839 0.08599,1.04732 3e-6,0.27775 0.163861,0.5049 0.422286,0.77396 0.493958,-0.52532 1.111273,-1.02891 1.513652,-1.59407 -0.726905,-0.25733 -1.319489,-0.30414 -2.021932,-0.22721 z m -2.7385625,1.61641 c -0.9969862,1.46493 -1.2529947,2.75962 -0.716629,4.16693 l 2.442125,-2.44212 z m 6.7516675,0.0671 c -0.835759,0.27367 -1.356779,1.0268 -1.988374,1.65839 l 2.589643,2.58824 c 0.223058,-0.51332 0.349239,-1.06594 0.349572,-1.62762 7.17e-4,-0.95987 -0.361017,-1.87592 -0.950841,-2.61901 z m -4.519291,2.16457 -4.2857745,4.28647 c -0.2671769,0.26718 -0.1901753,0.44401 -0.063624,0.57051 0.1265575,0.1265 0.3012265,0.20355 0.5684071,-0.0636 l 4.2836804,-4.28298 z m 1.012368,1.01236 -2.6889235,2.68893 c 0.7759222,0.65855 1.7692855,1.07466 2.8105735,1.10045 0.986333,0.0245 1.92806,-0.36041 2.681234,-0.9872 z m 4.632555,8.42963 c -1.23999,0 -2.287818,0.44403 -2.66935,0.92217 -0.06785,0.0852 -0.17077,0.13489 -0.279659,0.13489 l -8.5065316,-0.003 c -0.377845,0 -0.4460551,0.18038 -0.4460551,0.35936 0,0.17898 0.068207,0.35657 0.4460551,0.35657 l 8.5065316,-0.003 c 0.108889,10e-5 0.21181,0.0498 0.279659,0.13489 0.38058,0.47776 1.428694,0.92497 2.66935,0.92497 0.836432,0 1.590192,-0.19252 2.105832,-0.47612 0.515637,-0.2836 0.758572,-0.62412 0.758575,-0.93756 8e-6,-0.31343 -0.242938,-0.65744 -0.758575,-0.94104 -0.51564,-0.28362 -1.269389,-0.47262 -2.105832,-0.47262 z"
       sodipodi:nodetypes="cccsccccccccccccccccccccccccccccccccsccscscccccccsccccsscccccccccccccccscccscccccsccscccsccsssssss" />
  </g>
</svg>
